<?xml version="1.0" standalone="no"?>
<!DOCTYPE svg PUBLIC "-//W3C//DTD SVG 20010904//EN"
 "http://www.w3.org/TR/2001/REC-SVG-20010904/DTD/svg10.dtd">
<svg version="1.0" xmlns="http://www.w3.org/2000/svg"
 width="602.000000pt" height="602.000000pt" viewBox="0 0 602.000000 602.000000"
 preserveAspectRatio="xMidYMid meet">
<metadata>
Created by potrace 1.14, written by Peter Selinger 2001-2017
</metadata>
<g transform="translate(0.000000,602.000000) scale(0.100000,-0.100000)"
fill="#000000" stroke="none">
<path d="M2799 6015 c-2 -2 -38 -6 -79 -9 -42 -4 -87 -8 -100 -11 -14 -2 -43
-6 -65 -9 -186 -27 -478 -104 -610 -160 -16 -7 -57 -23 -90 -36 -120 -46 -384
-189 -518 -279 -76 -51 -143 -98 -150 -105 -6 -6 -22 -19 -34 -27 -72 -50
-367 -332 -443 -424 -270 -328 -477 -713 -587 -1095 -29 -97 -47 -169 -58
-228 -2 -13 -6 -31 -9 -40 -3 -9 -7 -35 -11 -57 -3 -22 -10 -67 -15 -101 -25
-156 -34 -549 -17 -714 63 -599 281 -1133 654 -1600 37 -47 133 -150 213 -230
145 -146 166 -165 250 -230 25 -19 47 -37 50 -40 3 -3 37 -28 75 -56 426 -305
947 -501 1470 -551 151 -15 576 -8 670 11 11 2 56 9 100 16 103 15 376 79 393
92 6 6 12 8 12 4 0 -3 16 0 35 8 20 9 36 15 38 15 37 -3 436 178 562 256 22
13 52 31 67 40 51 29 218 148 305 217 85 69 349 327 406 398 156 192 263 354
367 554 130 248 243 569 284 806 3 19 8 46 11 60 3 14 8 45 11 70 3 25 8 54
10 65 19 91 26 517 11 670 -8 89 -12 114 -32 230 -21 119 -24 132 -50 235 -32
131 -63 222 -138 415 -26 66 -149 306 -203 394 -56 94 -172 261 -216 312 -13
15 -41 49 -63 77 -43 54 -258 270 -340 341 -64 56 -258 200 -310 231 -22 13
-42 27 -45 30 -20 26 -334 184 -486 246 -119 47 -330 116 -394 128 -14 2 -56
11 -95 20 -79 17 -167 33 -240 41 -27 4 -61 9 -75 12 -29 5 -516 14 -521 8z"/>
</g>
</svg>
