<?xml version="1.0" standalone="no"?>
<!DOCTYPE svg PUBLIC "-//W3C//DTD SVG 20010904//EN"
 "http://www.w3.org/TR/2001/REC-SVG-20010904/DTD/svg10.dtd">
<svg version="1.0" xmlns="http://www.w3.org/2000/svg"
 width="604.000000pt" height="604.000000pt" viewBox="0 0 604.000000 604.000000"
 preserveAspectRatio="xMidYMid meet">
<metadata>
Created by potrace 1.14, written by Peter Selinger 2001-2017
</metadata>
<g transform="translate(0.000000,604.000000) scale(0.100000,-0.100000)"
fill="#000000" stroke="none">
<path d="M0 3020 l0 -3020 3020 0 3020 0 0 3020 0 3020 -3020 0 -3020 0 0
-3020z m3214 2834 c9 -3 16 -15 16 -27 0 -19 -4 -20 -74 -14 -84 6 -86 5 -86
-67 l0 -43 61 -6 c108 -10 108 -52 0 -45 l-61 3 0 -36 c0 -20 -3 -51 -6 -68
l-6 -31 65 0 c79 0 97 -6 97 -33 0 -19 -4 -20 -77 -13 -42 3 -89 6 -105 6
l-30 0 7 183 c4 100 9 185 12 190 5 8 164 10 187 1z m-371 -29 c55 -26 82 -77
85 -164 4 -93 -15 -135 -78 -170 -33 -19 -58 -24 -118 -25 l-77 -1 -17 175
c-11 117 -13 179 -6 187 21 25 156 24 211 -2z m850 -53 c39 -22 55 -48 40 -63
-8 -8 -21 -4 -49 15 -97 66 -196 -6 -198 -144 -1 -108 61 -148 177 -114 26 8
22 -33 -4 -47 -33 -17 -134 -7 -167 17 -105 77 -68 300 58 353 33 14 106 5
143 -17z m-1342 -32 c4 -14 28 -90 53 -169 49 -154 48 -171 -2 -171 -19 0 -56
30 -148 121 l-123 122 24 -74 c13 -41 33 -105 45 -142 23 -74 21 -97 -8 -97
-14 0 -27 29 -65 148 -65 207 -66 209 -32 222 16 6 32 9 36 8 5 -2 60 -54 123
-115 63 -62 117 -113 119 -113 4 0 -40 147 -73 244 -5 16 -7 33 -4 38 11 18
47 3 55 -22z m1620 -50 c18 -10 19 -23 19 -210 0 -206 -1 -211 -41 -190 -15 9
-19 22 -19 63 l0 52 -71 25 -72 24 -29 -37 c-31 -39 -83 -53 -76 -21 5 23 241
304 256 304 7 0 22 -5 33 -10z m-2021 -111 c44 -27 55 -41 87 -107 32 -67 34
-135 7 -183 -23 -41 -111 -89 -164 -89 -66 0 -133 68 -166 169 -30 92 2 167
88 210 55 27 104 27 148 0z m2319 -19 c76 -38 105 -73 97 -119 -6 -39 -41 -81
-68 -81 -22 0 -22 1 -2 -39 20 -40 12 -74 -26 -112 -21 -21 -38 -29 -64 -29
-42 0 -176 63 -176 83 0 7 32 73 70 146 39 73 70 135 70 138 0 7 31 43 37 43
2 0 30 -13 62 -30z m-2697 -147 c8 -10 54 -80 102 -156 73 -114 86 -140 76
-152 -7 -8 -16 -15 -21 -15 -9 0 -195 277 -206 307 -3 8 0 19 8 24 20 12 24
11 41 -8z m3044 -63 l21 -21 -39 -137 c-21 -75 -46 -161 -54 -189 -15 -53 -31
-65 -53 -40 -8 11 -7 26 4 63 8 27 15 49 15 50 0 5 -121 84 -130 84 -6 0 -27
-12 -47 -27 -26 -20 -39 -24 -51 -17 -9 6 -17 15 -19 20 -1 5 33 34 77 64 45
30 118 81 163 112 45 32 84 58 86 58 3 0 15 -9 27 -20z m-1316 -10 c359 -43
702 -169 1000 -366 69 -46 161 -112 205 -147 90 -73 254 -241 330 -338 28 -35
58 -73 67 -84 55 -65 258 -418 258 -449 0 -4 9 -25 19 -49 35 -74 100 -274
116 -354 8 -43 19 -96 24 -118 6 -22 17 -107 27 -189 42 -367 -27 -797 -184
-1156 -25 -58 -55 -121 -66 -140 -10 -19 -28 -53 -39 -75 -30 -62 -181 -282
-246 -360 -62 -73 -246 -254 -322 -316 -96 -78 -291 -201 -424 -268 -140 -70
-414 -169 -527 -190 -239 -45 -308 -53 -493 -55 -214 -1 -327 10 -533 53 -214
45 -517 166 -694 277 -89 56 -174 112 -195 130 -12 11 -48 39 -79 64 -98 76
-252 230 -336 334 -80 101 -148 199 -148 215 0 5 -4 11 -8 13 -45 18 -206 362
-267 568 -29 97 -35 123 -59 245 -43 214 -56 447 -36 630 6 50 13 106 15 125
11 97 69 355 85 375 4 6 10 25 14 43 21 112 209 492 286 579 14 15 31 40 39
55 32 63 248 294 390 416 176 154 468 327 661 392 36 12 74 26 85 31 88 37
362 98 535 117 99 12 377 7 500 -8z m-1830 -14 c0 -2 3 -11 6 -20 5 -12 0 -16
-20 -16 -35 0 -81 -24 -100 -52 -35 -49 -10 -132 59 -198 30 -29 43 -35 80
-35 34 0 50 6 74 29 16 15 35 42 42 58 11 26 14 28 27 15 19 -19 10 -56 -23
-95 -48 -58 -134 -78 -194 -47 -40 20 -108 100 -122 142 -6 19 -9 58 -7 85 4
39 12 57 39 85 19 19 43 39 54 43 21 9 85 13 85 6z m3370 -150 c9 -12 1 -27
-47 -78 -135 -147 -163 -180 -163 -187 0 -4 22 -27 50 -50 48 -40 58 -71 23
-71 -21 0 -144 113 -139 127 9 22 240 273 252 273 6 0 17 -6 24 -14z m-3578
-208 c98 -44 178 -84 178 -88 0 -4 -7 -13 -16 -21 -13 -10 -24 -9 -66 6 l-50
18 -55 -55 -54 -55 22 -46 c22 -44 22 -48 6 -64 -9 -9 -19 -15 -21 -12 -14 13
-166 344 -166 360 0 15 23 38 39 39 3 0 85 -37 183 -82z m3775 7 c1 -13 -19
-38 -60 -74 -34 -30 -88 -79 -120 -108 l-59 -54 46 -49 c50 -53 55 -67 30 -77
-12 -4 -34 13 -75 58 -32 35 -59 69 -59 76 0 18 263 253 280 250 8 -1 16 -11
17 -22z m-3995 -251 c75 -60 137 -114 137 -120 1 -6 -6 -17 -14 -24 -13 -10
-38 7 -160 105 -80 64 -145 120 -145 124 0 12 24 31 35 28 5 -2 72 -53 147
-113z m4219 -16 c56 -75 59 -83 43 -95 -15 -11 -22 -5 -62 47 -24 33 -47 60
-51 60 -4 0 -26 -14 -49 -31 l-42 -31 35 -50 c35 -48 40 -78 12 -78 -7 0 -20
12 -30 28 -9 15 -25 38 -35 51 l-19 23 -51 -37 c-29 -20 -52 -40 -52 -44 0 -4
18 -32 40 -61 39 -53 47 -79 24 -87 -13 -4 -124 140 -124 160 0 8 15 26 33 39
61 47 259 188 263 188 2 0 31 -37 65 -82z m-4411 -10 c0 -7 -16 -23 -36 -36
-41 -27 -67 -80 -58 -119 10 -37 83 -108 128 -123 79 -26 146 16 160 99 7 44
16 50 36 26 27 -32 -17 -131 -74 -166 -45 -27 -111 -25 -174 7 -128 64 -163
198 -75 289 35 36 93 50 93 23z m4577 -246 c18 -35 33 -76 33 -91 0 -36 -26
-70 -66 -87 -29 -12 -39 -12 -68 0 -33 14 -35 13 -40 -7 -6 -24 -91 -140 -105
-145 -6 -2 -15 7 -21 19 -10 18 -9 26 9 48 86 106 95 128 66 167 -14 19 -16
18 -87 -19 -68 -36 -73 -37 -85 -21 -11 15 -11 20 -1 30 26 24 303 174 318
172 8 -2 29 -32 47 -66z m-4666 -104 c60 -25 116 -85 125 -132 13 -72 -19
-149 -78 -187 -52 -32 -138 -22 -212 25 -77 49 -98 85 -93 158 4 70 37 123 92
149 47 23 93 19 166 -13z m4779 -183 c34 -18 54 -42 73 -93 24 -59 21 -101 -8
-144 -52 -76 -208 -121 -285 -81 -86 44 -117 188 -54 254 72 77 195 105 274
64z m-5070 -161 c0 -3 -11 -19 -25 -36 -27 -32 -34 -85 -13 -106 23 -23 56
-12 117 43 52 47 68 55 101 55 106 0 143 -126 63 -220 -46 -55 -80 -31 -37 26
19 24 28 48 28 77 1 36 -3 43 -27 55 -24 12 -31 11 -60 -7 -17 -11 -47 -36
-65 -55 -18 -18 -45 -36 -60 -39 -36 -7 -86 15 -108 47 -34 52 8 166 62 166
13 0 24 -3 24 -6z m5208 -210 c60 -42 72 -174 16 -174 -8 0 -12 17 -11 50 2
39 -3 54 -21 72 -21 21 -24 22 -50 8 -21 -13 -31 -30 -45 -85 -11 -39 -28 -80
-40 -92 -29 -32 -82 -40 -123 -18 -74 40 -96 204 -26 205 9 0 11 -14 6 -54 -5
-41 -3 -59 10 -78 40 -61 109 -30 121 55 8 55 37 104 68 117 34 14 70 12 95
-6z m-4978 -128 c0 -27 -16 -36 -65 -36 -40 0 -48 -10 -63 -78 -18 -79 -16
-86 28 -111 30 -16 40 -29 40 -47 0 -13 -5 -24 -10 -24 -9 0 -236 134 -315
186 -27 17 -34 57 -12 71 11 7 323 59 375 62 17 1 22 -4 22 -23z m-242 -876
c67 -41 90 -120 54 -189 -67 -133 -272 -85 -272 64 0 108 126 181 218 125z
m5253 -3 c19 -12 42 -38 51 -57 63 -125 -68 -256 -191 -192 -48 24 -73 62 -78
119 -4 39 0 55 19 83 46 68 136 90 199 47z m-4781 -976 c5 -11 10 -22 10 -25
0 -2 -34 -23 -75 -46 -41 -23 -75 -44 -75 -46 0 -4 85 -150 94 -161 0 0 35 18
76 42 55 33 78 41 87 33 27 -22 12 -44 -65 -87 -42 -25 -122 -71 -176 -103
-88 -53 -101 -58 -114 -44 -23 23 -9 41 72 87 l75 42 -36 66 c-62 112 -49 107
-136 56 -42 -25 -83 -45 -91 -45 -13 0 -33 37 -24 44 1 2 53 32 113 67 61 35
137 80 170 101 70 43 81 45 95 19z m4257 -160 c23 -11 63 -39 88 -62 76 -71
93 -140 54 -224 -39 -84 -113 -126 -191 -111 -53 10 -133 62 -175 112 -35 44
-38 52 -38 110 0 53 4 69 30 105 62 88 140 111 232 70z m-4007 -224 c60 -75
71 -107 36 -107 -9 0 -33 24 -54 53 -61 82 -60 82 -114 34 l-48 -42 46 -60
c44 -57 45 -60 25 -69 -12 -5 -23 -7 -24 -5 -40 53 -82 99 -91 99 -6 0 -34
-20 -61 -43 l-49 -44 53 -67 c44 -55 51 -69 41 -81 -7 -8 -16 -15 -20 -15 -14
0 -140 164 -140 181 0 9 6 19 13 22 6 3 77 57 157 121 85 68 149 112 156 108
7 -4 40 -42 74 -85z m3720 -11 c0 -7 -16 -27 -35 -46 -20 -19 -34 -40 -33 -46
2 -6 37 -42 78 -79 203 -184 191 -171 171 -196 l-17 -22 -135 122 c-74 66
-139 121 -146 121 -6 0 -27 -19 -47 -41 -35 -41 -66 -48 -66 -15 0 8 46 64
101 125 81 88 105 109 115 100 8 -6 14 -17 14 -23z m-3580 -149 c72 -67 90
-96 90 -142 0 -34 -6 -50 -30 -75 -26 -28 -35 -31 -77 -29 -36 2 -47 -1 -45
-11 4 -15 -18 -85 -48 -154 -18 -42 -22 -46 -40 -36 -26 14 -25 38 5 106 31
71 32 120 3 151 l-22 24 -67 -67 c-59 -59 -70 -66 -84 -54 -9 7 -15 19 -13 25
5 19 269 295 282 295 6 0 27 -15 46 -33z m3369 -91 c10 -12 4 -18 -33 -34 -57
-26 -83 -63 -68 -97 16 -34 53 -40 128 -20 98 26 146 10 184 -64 34 -66 -59
-191 -143 -191 -22 0 -47 16 -47 31 0 4 20 12 44 18 53 13 99 61 94 99 -2 14
-15 34 -30 45 -26 19 -29 19 -92 3 -36 -9 -76 -16 -90 -16 -62 0 -106 49 -106
116 0 31 7 44 45 81 48 45 91 57 114 29z m-3070 -163 l21 -18 -62 -212 c-34
-117 -66 -213 -72 -213 -5 0 -17 7 -27 16 -15 14 -15 20 -3 61 8 25 14 51 14
58 0 12 -121 105 -137 105 -5 0 -28 -14 -51 -31 -35 -25 -45 -28 -62 -19 -12
6 -19 17 -17 23 4 15 346 247 363 247 6 0 21 -8 33 -17z m2940 -140 c62 -86
116 -164 118 -174 3 -10 -3 -22 -15 -28 -19 -10 -31 4 -141 154 -67 91 -121
169 -121 173 0 12 22 32 35 32 5 0 61 -71 124 -157z m-176 5 c24 -26 28 -37
25 -72 -3 -22 -8 -48 -12 -57 -5 -12 -1 -18 17 -22 27 -7 157 -103 157 -117 0
-5 -9 -14 -21 -20 -17 -10 -30 -4 -86 39 -70 54 -118 66 -156 37 -17 -13 -15
-19 28 -91 36 -62 43 -80 34 -92 -7 -7 -19 -13 -27 -11 -16 3 -212 324 -212
348 0 18 89 74 140 88 49 14 80 5 113 -30z m-2572 6 c13 -16 -2 -50 -113 -242
-26 -46 -48 -87 -48 -90 0 -4 29 -23 65 -42 62 -33 81 -59 55 -75 -12 -7 -180
82 -186 99 -6 16 188 366 202 366 6 0 17 -7 25 -16z m2290 -104 c10 -6 19 -20
19 -32 0 -18 -4 -20 -31 -14 -50 10 -105 -10 -131 -47 -63 -88 23 -277 126
-277 38 0 86 26 118 63 23 28 28 30 33 14 28 -70 -111 -156 -204 -126 -66 21
-128 97 -146 177 -25 117 14 201 110 236 49 18 80 19 106 6z m-2018 -34 c86
-41 123 -73 136 -123 15 -52 14 -72 -6 -132 -20 -64 -82 -136 -129 -151 -42
-14 -107 -6 -178 22 -86 33 -86 23 -7 222 39 98 73 182 77 187 9 16 33 10 107
-25z m1597 -131 c0 -8 -30 -20 -77 -30 -43 -9 -81 -20 -85 -23 -9 -10 16 -115
29 -119 6 -2 38 2 72 10 64 15 71 14 71 -14 0 -13 -15 -21 -66 -32 -36 -9 -68
-17 -70 -20 -3 -2 3 -34 12 -71 18 -74 17 -73 109 -51 80 19 85 19 85 -9 0
-22 -7 -25 -106 -46 -58 -12 -110 -18 -114 -14 -10 10 -90 352 -90 383 0 13 8
23 23 26 12 3 58 14 102 24 80 19 105 15 105 -14z m-1154 -4 c87 -40 114 -131
75 -259 -16 -54 -30 -77 -61 -106 -46 -42 -73 -50 -139 -44 -73 7 -122 36
-148 88 -28 54 -29 109 -4 188 23 74 54 120 95 138 45 19 134 17 182 -5z m340
-53 c17 -8 24 -19 24 -39 l0 -27 -49 20 c-58 25 -97 19 -113 -17 -16 -36 3
-65 68 -105 74 -44 94 -72 94 -127 0 -38 -6 -51 -33 -78 -44 -44 -103 -54
-172 -28 -45 17 -50 22 -53 51 l-3 33 43 -22 c84 -43 162 -21 156 45 -2 23
-14 38 -48 63 -92 66 -109 84 -116 120 -9 48 17 100 59 119 34 15 100 11 143
-8z m437 1 c98 -27 155 -174 113 -292 -29 -79 -86 -112 -212 -123 l-81 -7 -11
114 c-6 63 -15 158 -18 211 l-7 97 39 4 c79 8 140 7 177 -4z"/>
<path d="M2681 5768 c1 -18 6 -85 13 -148 l11 -115 45 3 c60 5 94 24 114 66
29 61 14 150 -34 198 -25 25 -36 28 -89 28 l-61 0 1 -32z"/>
<path d="M3880 5570 c-30 -39 -54 -74 -53 -78 2 -9 104 -45 110 -39 2 3 2 46
1 96 l-3 92 -55 -71z"/>
<path d="M1825 5540 c-86 -35 -90 -138 -9 -247 28 -37 70 -49 119 -33 73 24
95 98 54 185 -39 83 -103 121 -164 95z"/>
<path d="M4194 5479 c-14 -28 -24 -52 -22 -54 14 -12 71 -35 86 -35 28 0 54
34 50 66 -3 26 -55 74 -79 74 -5 0 -20 -23 -35 -51z"/>
<path d="M4121 5335 c-17 -30 -31 -57 -31 -60 0 -10 80 -45 104 -45 32 0 56
25 56 58 0 35 -7 44 -57 75 l-41 26 -31 -54z"/>
<path d="M4500 5254 c-36 -25 -69 -49 -73 -53 -8 -8 72 -71 90 -71 10 0 59
158 52 165 -3 2 -34 -16 -69 -41z"/>
<path d="M2800 5279 c-199 -19 -432 -75 -620 -149 -127 -50 -385 -191 -490
-269 -195 -144 -408 -360 -520 -526 -19 -27 -37 -51 -42 -53 -4 -2 -8 -8 -8
-14 0 -6 -14 -30 -30 -55 -17 -25 -47 -75 -66 -112 -19 -36 -38 -73 -44 -81
-40 -64 -129 -313 -169 -475 -93 -372 -73 -875 50 -1230 26 -73 97 -253 111
-279 52 -98 150 -268 158 -276 3 -3 21 -27 40 -55 54 -78 124 -162 223 -264
348 -362 792 -590 1297 -668 161 -24 502 -24 660 0 405 63 765 220 1095 479
96 76 267 247 343 343 94 120 150 203 204 303 17 31 34 59 37 62 10 8 86 183
125 285 149 397 176 897 70 1320 -47 187 -86 289 -181 479 -316 633 -920 1084
-1623 1210 -189 34 -426 44 -620 25z m575 -54 c106 -18 302 -67 369 -92 266
-100 471 -212 659 -360 108 -85 324 -306 403 -413 223 -301 358 -622 421 -995
25 -155 25 -535 0 -685 -90 -524 -310 -937 -691 -1297 -314 -297 -715 -492
-1176 -570 -147 -25 -541 -25 -685 0 -474 83 -865 277 -1194 592 -191 183
-347 393 -457 615 -46 93 -67 143 -119 281 -25 66 -73 264 -91 374 -23 139
-26 523 -5 660 59 395 213 753 459 1070 74 96 289 307 392 386 302 232 691
396 1045 438 50 6 101 13 115 15 62 11 460 -3 555 -19z"/>
<path d="M3541 4538 c-33 -46 -68 -98 -77 -117 -17 -35 -56 -94 -123 -183 -21
-29 -43 -48 -55 -48 -10 0 -47 15 -80 34 -72 40 -197 86 -232 86 -14 0 -22 4
-19 10 3 6 -1 7 -10 4 -8 -3 -33 1 -55 10 -22 9 -42 16 -45 16 -6 0 -198 -241
-194 -244 2 -2 95 -48 206 -101 111 -54 204 -104 207 -112 7 -18 -5 -42 -57
-111 -23 -33 -35 -58 -30 -63 10 -10 145 164 147 190 1 10 -63 46 -204 112
-113 54 -209 100 -215 102 -14 5 126 187 144 187 9 0 108 -34 221 -76 113 -42
212 -78 221 -81 12 -3 58 52 170 206 84 116 159 211 165 211 15 0 235 -58 241
-63 2 -3 -64 -105 -147 -227 -110 -164 -147 -226 -138 -231 7 -5 45 -20 83
-33 115 -40 314 -112 410 -149 50 -18 111 -42 138 -51 26 -10 47 -21 47 -26 0
-4 -16 -37 -36 -72 -21 -34 -57 -99 -81 -143 -25 -44 -49 -84 -53 -89 -8 -8
-69 19 -465 204 -188 88 -218 101 -230 96 -6 -2 -63 -80 -125 -173 -236 -349
-263 -389 -283 -408 -18 -18 -18 -16 3 20 13 22 51 81 85 130 34 50 117 172
184 273 79 117 128 182 139 182 10 0 69 -25 132 -55 63 -31 123 -54 133 -51 9
2 15 1 12 -4 -8 -13 164 -91 188 -85 12 2 16 2 8 -1 -9 -4 27 -27 93 -60 60
-30 110 -54 112 -54 2 0 19 30 38 68 19 37 49 87 65 112 17 25 31 50 31 56 0
6 7 17 15 24 8 7 15 16 15 20 0 4 -46 24 -102 45 -397 145 -588 218 -588 225
0 4 15 30 33 56 18 27 78 114 132 194 54 80 107 156 117 169 10 13 16 26 14
28 -8 9 -182 52 -208 53 -18 0 -31 -7 -38 -21 -11 -19 -92 -132 -225 -314 -32
-44 -60 -82 -61 -84 -2 -2 -97 31 -211 74 -114 43 -221 78 -237 79 -25 1 -37
-10 -87 -74 l-58 -75 92 -45 c51 -25 149 -72 220 -104 70 -33 127 -61 127 -63
0 -3 -9 -17 -21 -31 -52 -68 -139 -188 -139 -193 0 -4 18 -19 41 -33 l41 -27
-64 -67 c-35 -37 -80 -89 -99 -117 -97 -135 -91 -290 17 -413 46 -53 126 -108
142 -98 5 3 36 46 68 95 60 92 80 110 72 66 -7 -32 -2 -32 17 3 l16 27 -5 -30
c-5 -30 -5 -30 7 -5 7 14 24 42 40 61 27 36 36 74 17 81 -5 2 0 23 10 47 11
24 20 53 20 65 0 13 11 28 28 38 16 10 57 59 92 110 35 51 65 95 67 97 2 3 19
-3 39 -12 19 -10 39 -15 44 -12 5 3 12 -1 17 -8 4 -8 34 -27 66 -42 l59 -27
-29 -31 c-15 -18 -32 -35 -37 -38 -5 -4 -6 -14 -3 -22 3 -8 -3 -31 -13 -50
-21 -38 -18 -47 14 -47 14 0 41 25 81 75 46 56 64 72 79 68 10 -3 68 -29 130
-58 211 -99 248 -116 251 -113 1 2 35 59 75 128 41 69 97 165 126 213 l52 88
-54 51 c-29 27 -57 47 -62 44 -5 -3 -62 -98 -128 -211 -65 -113 -121 -205
-125 -205 -7 0 -129 56 -522 241 -92 44 -170 79 -172 79 -2 0 -45 -62 -96
-137 -133 -198 -260 -375 -266 -369 -7 6 34 78 97 171 26 39 59 88 74 110 76
118 163 240 177 249 13 7 39 1 100 -23 46 -18 89 -38 96 -43 7 -5 18 -6 24 -2
7 4 9 3 6 -3 -4 -6 14 -18 41 -28 26 -10 61 -27 77 -37 17 -10 40 -18 53 -18
13 0 21 -4 17 -10 -3 -5 14 -15 37 -21 24 -7 55 -21 70 -31 16 -11 33 -16 39
-12 7 4 9 3 6 -3 -7 -11 130 -69 140 -59 4 3 3 6 0 6 -4 0 3 11 16 25 12 15
33 48 47 75 14 27 51 93 83 145 31 53 57 99 57 103 0 4 -49 24 -108 45 -223
80 -537 200 -549 209 -28 23 -20 37 167 307 61 87 62 62 2 -30 -27 -41 -57
-88 -68 -105 -10 -17 -36 -57 -57 -88 -21 -32 -37 -60 -34 -62 2 -2 36 -15 75
-28 l72 -25 118 177 c65 97 127 192 137 209 l19 33 -49 50 c-30 31 -57 49 -69
48 -27 -2 -158 23 -171 33 -13 10 -154 49 -177 49 -9 0 -42 -35 -77 -82z m369
-72 c0 -2 -7 -9 -15 -16 -13 -11 -14 -10 -9 4 5 14 24 23 24 12z"/>
<path d="M2659 4036 c30 -30 74 -64 98 -73 23 -10 45 -24 48 -31 3 -7 1 -11
-4 -8 -5 4 -23 -19 -40 -49 -40 -70 -110 -142 -183 -189 -32 -20 -58 -39 -58
-42 0 -4 18 -28 40 -54 51 -61 107 -153 115 -190 5 -23 -2 -39 -38 -87 -91
-121 -239 -326 -243 -338 -3 -7 6 -15 20 -19 24 -6 37 -26 17 -26 -14 0 -4
-80 14 -107 9 -13 15 -38 13 -56 -2 -20 3 -37 12 -44 14 -10 -41 -12 -162 -4
-11 1 -15 7 -12 15 3 8 -2 36 -11 63 -9 26 -19 83 -21 125 -4 73 -7 81 -47
135 -55 73 -83 180 -73 277 l6 62 -69 62 c-38 34 -73 71 -76 82 -13 40 -23 19
-18 -34 3 -30 1 -67 -4 -83 -9 -26 -5 -35 42 -98 57 -77 95 -165 95 -223 0
-21 -7 -64 -15 -96 -14 -51 -14 -68 0 -154 9 -53 17 -103 17 -109 1 -7 11 -14
22 -14 65 -4 65 -2 -18 -117 -36 -48 -74 -108 -85 -133 -16 -37 -78 -130 -136
-204 -13 -17 -13 -20 0 -28 8 -4 15 -15 15 -23 0 -9 38 -62 84 -117 115 -140
144 -171 161 -173 13 -2 75 73 75 90 0 3 15 26 33 50 32 44 44 62 155 227 69
104 101 144 107 137 6 -6 -66 -118 -146 -229 -30 -41 -58 -82 -64 -91 -5 -9
-40 -62 -77 -117 -38 -55 -68 -104 -68 -109 0 -4 25 -32 55 -62 l55 -54 18 24
c16 23 80 118 421 620 69 102 137 203 152 225 l28 40 -27 6 c-15 4 -58 7 -97
8 -51 2 -64 5 -48 11 16 7 20 14 16 31 -4 15 0 26 12 35 17 13 14 14 -24 14
-23 0 -56 7 -73 16 -29 15 -30 15 -24 -1 3 -9 3 -34 0 -56 -5 -32 -11 -39 -30
-39 -19 0 -22 4 -18 23 3 12 8 41 11 65 5 34 9 42 22 38 12 -5 12 -3 -2 8 -10
8 -14 17 -9 20 6 3 8 15 5 27 -4 13 2 27 16 40 l21 20 9 -23 10 -23 0 26 c1
42 23 63 65 61 21 -1 34 3 31 8 -3 5 -11 51 -16 102 -7 61 -15 96 -25 101 -8
4 -14 15 -14 22 0 8 -3 15 -8 15 -7 0 -8 160 -1 203 2 13 9 17 30 13 17 -2 33
2 40 10 6 8 15 11 20 8 5 -3 10 9 11 25 1 17 2 45 3 61 1 17 -2 30 -6 30 -5 0
-9 5 -9 10 0 6 7 10 15 10 8 0 15 5 15 10 0 6 -12 10 -27 10 -41 0 -55 13 -51
46 2 23 10 31 36 39 30 9 32 12 33 60 1 27 2 67 3 87 1 41 -2 45 -24 26 -8 -7
-6 -3 3 9 12 14 17 33 15 59 -3 32 -8 40 -43 59 -35 18 -133 63 -160 74 -5 2
15 -22 44 -53z m146 -226 c3 -5 2 -10 -4 -10 -5 0 -13 5 -16 10 -3 6 -2 10 4
10 5 0 13 -4 16 -10z m-155 -670 c-6 -12 -14 -19 -17 -17 -2 3 1 15 7 27 6 12
14 19 17 17 2 -3 -1 -15 -7 -27z m24 -136 c12 -5 10 -11 -13 -30 -36 -30 -38
-30 -43 1 -6 30 19 43 56 29z"/>
<path d="M2835 3953 c4 -16 8 -29 9 -30 1 -1 40 -20 87 -42 l84 -40 22 21 c13
12 21 24 18 26 -7 7 -209 92 -218 92 -5 0 -6 -12 -2 -27z"/>
<path d="M3564 3491 c-23 -25 -68 -62 -101 -81 l-60 -35 -6 -82 c-8 -112 -46
-197 -124 -277 -32 -34 -50 -55 -40 -47 16 13 17 12 13 -16 -5 -26 -15 -54
-56 -148 -5 -11 -11 -32 -14 -47 -4 -16 -10 -28 -15 -28 -6 0 -5 14 1 33 5 17
12 42 15 55 3 12 9 22 13 22 5 0 10 27 12 60 3 56 -3 73 -17 51 -3 -5 -18 -12
-33 -16 -22 -5 -33 -19 -56 -73 -16 -37 -35 -80 -43 -96 -25 -55 -14 -76 42
-76 13 0 30 7 39 15 18 18 37 20 33 3 -1 -10 20 -13 83 -13 81 0 85 1 88 23 2
12 8 22 13 22 5 0 8 3 7 8 -1 4 8 39 20 77 18 58 20 85 15 161 -6 87 -5 93 26
158 20 42 58 94 99 137 63 68 66 72 63 117 -1 26 5 67 14 91 8 24 14 45 13 46
-2 2 -21 -18 -44 -44z"/>
<path d="M1794 3488 c2 -7 9 -26 16 -43 l13 -30 8 30 c7 23 5 33 -8 43 -9 6
-20 12 -24 12 -4 0 -6 -6 -5 -12z"/>
<path d="M2171 3400 c-9 -5 -14 -34 -15 -81 -1 -62 2 -74 16 -77 17 -3 20 4
33 109 6 48 -7 66 -34 49z"/>
<path d="M2236 3274 c-3 -8 -12 -14 -21 -14 -20 0 -19 -12 10 -100 17 -52 37
-89 66 -120 23 -25 34 -33 26 -19 -27 45 -36 127 -22 181 13 51 13 51 -32 74
-17 10 -23 9 -27 -2z"/>
<path d="M3335 3230 c3 -5 8 -10 11 -10 2 0 4 5 4 10 0 6 -5 10 -11 10 -5 0
-7 -4 -4 -10z"/>
<path d="M2798 2949 c4 -34 6 -38 17 -23 11 15 13 15 28 -7 21 -29 22 -18 2
21 -8 16 -23 34 -33 39 -15 8 -17 5 -14 -30z"/>
<path d="M1997 2968 c-8 -21 12 -108 25 -108 12 0 4 81 -10 107 -8 13 -10 13
-15 1z"/>
<path d="M2700 2944 c0 -12 5 -26 10 -29 6 -3 10 1 10 9 0 13 5 14 26 5 43
-16 39 -3 -6 18 l-40 20 0 -23z"/>
<path d="M2340 2935 c0 -8 8 -15 18 -14 10 0 12 3 4 6 -6 2 -10 9 -6 14 3 5 0
9 -5 9 -6 0 -11 -7 -11 -15z"/>
<path d="M3479 2925 c-12 -17 -39 -118 -34 -123 9 -9 46 88 43 111 -2 12 -6
18 -9 12z"/>
<path d="M2739 2893 c-13 -16 -12 -17 4 -4 16 13 21 21 13 21 -2 0 -10 -8 -17
-17z"/>
<path d="M2728 2271 c-87 -28 -132 -104 -131 -222 1 -91 26 -147 80 -180 42
-26 127 -35 178 -17 32 11 40 19 46 46 8 40 -2 47 -40 27 -58 -30 -125 -15
-154 35 -22 36 -23 150 -2 190 31 61 92 77 153 40 18 -11 35 -20 37 -20 3 0 5
16 5 35 0 26 -6 39 -26 51 -29 20 -107 27 -146 15z"/>
<path d="M3152 2063 l3 -208 110 0 110 0 0 30 0 30 -72 3 -73 3 0 174 0 175
-40 0 -40 0 2 -207z"/>
<path d="M3710 2250 c-13 -24 -140 -380 -140 -392 0 -4 18 -8 39 -8 38 0 40 1
56 50 l17 51 80 -3 80 -3 17 -45 c16 -43 19 -45 59 -48 24 -2 42 1 42 7 0 16
-132 385 -143 399 -5 6 -29 12 -53 12 -33 0 -46 -5 -54 -20z m79 -137 c13 -38
26 -74 29 -80 3 -10 -12 -13 -56 -13 l-60 0 26 80 c14 44 29 80 32 80 3 0 16
-30 29 -67z"/>
<path d="M2968 1925 c-17 -37 3 -75 40 -75 35 0 52 16 52 50 0 34 -17 50 -52
50 -21 0 -32 -7 -40 -25z"/>
<path d="M3432 1938 c-29 -29 -5 -88 36 -88 35 0 52 16 52 50 0 33 -17 50 -50
50 -14 0 -31 -5 -38 -12z"/>
<path d="M4022 1938 c-32 -32 -3 -92 43 -86 35 4 57 47 39 76 -13 21 -65 27
-82 10z"/>
<path d="M1100 4975 c0 -6 70 -148 76 -154 6 -6 84 71 84 82 0 4 -33 24 -74
43 -76 35 -86 38 -86 29z"/>
<path d="M5318 4434 c-27 -13 -48 -29 -48 -36 0 -22 41 -76 63 -82 26 -7 70
22 75 49 4 18 -26 95 -37 95 -3 -1 -27 -12 -53 -26z"/>
<path d="M597 4309 c-23 -13 -48 -64 -49 -99 -1 -40 25 -76 79 -110 53 -34
121 -47 152 -30 30 16 61 69 61 105 0 48 -31 88 -93 118 -57 28 -118 35 -150
16z"/>
<path d="M5384 4114 c-61 -22 -104 -68 -104 -113 0 -46 32 -98 68 -112 47 -18
150 11 204 59 24 21 33 76 18 113 -28 66 -95 85 -186 53z"/>
<path d="M447 3604 c-43 -7 -81 -15 -84 -17 -5 -6 130 -87 145 -87 11 0 35
102 25 110 -5 4 -43 1 -86 -6z"/>
<path d="M5021 1584 c-17 -14 -36 -43 -42 -65 -21 -69 24 -134 128 -188 76
-38 138 -19 174 56 28 58 13 107 -47 157 -84 71 -160 85 -213 40z"/>
<path d="M1233 1184 c-23 -26 -39 -52 -37 -58 9 -23 73 -57 100 -54 33 4 69
48 60 75 -7 22 -61 83 -73 83 -5 0 -27 -21 -50 -46z"/>
<path d="M1485 909 c-38 -28 -74 -54 -78 -58 -4 -4 17 -27 48 -50 37 -28 57
-38 60 -29 13 40 55 180 55 184 0 10 -19 0 -85 -47z"/>
<path d="M4233 840 c-18 -11 -33 -24 -33 -29 0 -12 50 -100 61 -106 17 -11 70
26 86 61 16 33 16 35 -4 62 -25 34 -67 39 -110 12z"/>
<path d="M1957 572 c-32 -81 -58 -150 -57 -153 0 -4 25 -14 56 -24 78 -24 118
-14 160 42 19 24 38 66 45 97 16 74 -6 120 -76 158 -27 15 -54 28 -60 28 -5 0
-36 -67 -68 -148z"/>
<path d="M2355 548 c-35 -34 -65 -116 -65 -181 0 -67 58 -117 135 -117 50 0
98 48 119 120 20 66 20 101 2 145 -17 41 -60 65 -116 65 -32 0 -48 -7 -75 -32z"/>
<path d="M3150 498 c0 -12 5 -84 12 -161 8 -103 15 -140 26 -144 28 -11 118
17 146 46 54 57 44 188 -21 248 -32 30 -40 33 -99 33 -59 0 -64 -2 -64 -22z"/>
</g>
</svg>
